<svg width="10" height="8" viewBox="0 0 10 8" fill="none" xmlns="http://www.w3.org/2000/svg">
<path d="M0.304688 0.425781C0.380208 0.428385 0.489583 0.433594 0.632812 0.441406C1.03385 0.46224 1.30599 0.472656 1.44922 0.472656C1.62891 0.472656 1.95182 0.460938 2.41797 0.4375C2.52214 0.432292 2.60156 0.428385 2.65625 0.425781V0.777344H2.56641C2.34245 0.777344 2.1901 0.832031 2.10938 0.941406C2.03125 1.05078 1.99219 1.34245 1.99219 1.81641V1.99219V2.84766C2.21094 2.85547 2.42708 2.86198 2.64062 2.86719C2.85417 2.86979 3.0651 2.87109 3.27344 2.87109C3.46875 2.87109 3.6888 2.86979 3.93359 2.86719C4.17839 2.86198 4.44792 2.85547 4.74219 2.84766V1.81641C4.74219 1.34245 4.70312 1.05078 4.625 0.941406C4.54688 0.832031 4.39453 0.777344 4.16797 0.777344H4.07812V0.425781C4.32812 0.441406 4.55339 0.453125 4.75391 0.460938C4.95443 0.46875 5.13281 0.472656 5.28906 0.472656C5.43229 0.472656 5.70443 0.46224 6.10547 0.441406C6.24609 0.433594 6.35547 0.428385 6.43359 0.425781V0.773438C6.41797 0.773438 6.39974 0.773438 6.37891 0.773438C6.36068 0.770833 6.33594 0.769531 6.30469 0.769531C6.09896 0.769531 5.95964 0.83724 5.88672 0.972656C5.8138 1.10547 5.77734 1.40234 5.77734 1.86328C5.77734 1.94141 5.77865 2.08203 5.78125 2.28516C5.78385 2.48828 5.78516 2.65495 5.78516 2.78516V3.60938C5.78516 3.76562 5.78385 3.96224 5.78125 4.19922C5.77865 4.43359 5.77734 4.59115 5.77734 4.67188C5.77734 5.08073 5.8151 5.34766 5.89062 5.47266C5.96615 5.59505 6.10938 5.65625 6.32031 5.65625C6.35938 5.65625 6.38802 5.65625 6.40625 5.65625C6.42708 5.65365 6.44531 5.65104 6.46094 5.64844V6C6.3724 5.99479 6.2474 5.98828 6.08594 5.98047C5.68229 5.96224 5.41406 5.95312 5.28125 5.95312C5.13281 5.95312 4.95443 5.95703 4.74609 5.96484C4.53776 5.97266 4.29948 5.98438 4.03125 6V5.64844C4.05208 5.64844 4.07812 5.64974 4.10938 5.65234C4.14062 5.65495 4.16276 5.65625 4.17578 5.65625C4.39974 5.65625 4.54948 5.59766 4.625 5.48047C4.70312 5.36328 4.74219 5.0612 4.74219 4.57422V4.28125V3.44922C4.47917 3.44401 4.23698 3.4401 4.01562 3.4375C3.79427 3.4349 3.57552 3.43359 3.35938 3.43359C2.98958 3.43359 2.70964 3.4349 2.51953 3.4375C2.33203 3.4401 2.15625 3.44401 1.99219 3.44922V4.57422C1.99219 5.0612 2.02995 5.36328 2.10547 5.48047C2.18359 5.59766 2.33464 5.65625 2.55859 5.65625C2.57161 5.65625 2.59375 5.65495 2.625 5.65234C2.65885 5.64974 2.6849 5.64844 2.70312 5.64844V6C2.43229 5.98438 2.19271 5.97266 1.98438 5.96484C1.77604 5.95703 1.60026 5.95312 1.45703 5.95312C1.32161 5.95312 1.05339 5.96224 0.652344 5.98047C0.490885 5.98828 0.364583 5.99479 0.273438 6V5.64844C0.291667 5.65104 0.311198 5.65365 0.332031 5.65625C0.352865 5.65625 0.384115 5.65625 0.425781 5.65625C0.634115 5.65625 0.77474 5.58854 0.847656 5.45312C0.923177 5.3151 0.960938 5.01953 0.960938 4.56641C0.960938 4.48828 0.959635 4.34375 0.957031 4.13281C0.954427 3.92188 0.953125 3.75 0.953125 3.61719V2.78516C0.953125 2.63932 0.954427 2.45443 0.957031 2.23047C0.959635 2.00651 0.960938 1.85547 0.960938 1.77734C0.960938 1.36068 0.923177 1.08854 0.847656 0.960938C0.772135 0.833333 0.634115 0.769531 0.433594 0.769531C0.39974 0.769531 0.373698 0.770833 0.355469 0.773438C0.33724 0.773438 0.320312 0.773438 0.304688 0.773438V0.425781ZM6.97266 0.425781C7.22005 0.441406 7.44661 0.453125 7.65234 0.460938C7.86068 0.46875 8.04818 0.472656 8.21484 0.472656C8.39193 0.472656 8.70703 0.460938 9.16016 0.4375C9.26953 0.432292 9.35417 0.428385 9.41406 0.425781V0.777344H9.33203C9.10807 0.777344 8.95833 0.830729 8.88281 0.9375C8.8099 1.04167 8.77344 1.32943 8.77344 1.80078V1.92188C8.77344 2.17188 8.77474 2.50911 8.77734 2.93359C8.77995 3.35807 8.78125 3.65755 8.78125 3.83203C8.78125 4.5638 8.76172 5.11068 8.72266 5.47266C8.68359 5.83464 8.61849 6.1276 8.52734 6.35156C8.36589 6.74219 8.11979 7.05599 7.78906 7.29297C7.45833 7.52995 7.10156 7.64844 6.71875 7.64844C6.46354 7.64844 6.26562 7.60417 6.125 7.51562C5.98177 7.42708 5.91016 7.30339 5.91016 7.14453C5.91016 7.00651 5.94531 6.89714 6.01562 6.81641C6.08594 6.73568 6.18099 6.69531 6.30078 6.69531C6.38932 6.69531 6.52214 6.75391 6.69922 6.87109C6.8737 6.98828 7.01302 7.04688 7.11719 7.04688C7.32552 7.04688 7.47396 6.9401 7.5625 6.72656C7.65104 6.51562 7.69531 6.1263 7.69531 5.55859L7.6875 1.45703C7.6875 1.1888 7.64453 1.00911 7.55859 0.917969C7.47266 0.824219 7.3125 0.777344 7.07812 0.777344H6.97266V0.425781Z" fill="white"/>
</svg>
